<mxfile host="app.diagrams.net" modified="2022-08-02T09:10:52.105Z" agent="5.0 (Macintosh; Intel Mac OS X 10_15_7) AppleWebKit/537.36 (KHTML, like Gecko) Chrome/103.0.0.0 Safari/537.36" etag="ewC3FKE5IXuLAda1UB5a" version="20.2.0" type="github">
  <diagram id="C5RBs43oDa-KdzZeNtuy" name="Page-1">
    <mxGraphModel dx="1097" dy="1780" grid="1" gridSize="10" guides="1" tooltips="1" connect="1" arrows="1" fold="1" page="1" pageScale="1" pageWidth="827" pageHeight="1169" math="0" shadow="0">
      <root>
        <mxCell id="WIyWlLk6GJQsqaUBKTNV-0" />
        <mxCell id="WIyWlLk6GJQsqaUBKTNV-1" parent="WIyWlLk6GJQsqaUBKTNV-0" />
        <mxCell id="vIY9tpSzzPqMu0DWue8W-50" value="h5和客户端用户信息交互流程 2.0版，颜色深的部分是区别于1.0的部分" style="rounded=0;whiteSpace=wrap;html=1;fontSize=10;align=left;verticalAlign=top;spacingTop=10;spacingLeft=20;container=1;" parent="WIyWlLk6GJQsqaUBKTNV-1" vertex="1">
          <mxGeometry x="19" y="-90" width="790" height="60" as="geometry" />
        </mxCell>
        <mxCell id="WIyWlLk6GJQsqaUBKTNV-2" value="" style="rounded=0;html=1;jettySize=auto;orthogonalLoop=1;fontSize=11;endArrow=block;endFill=0;endSize=8;strokeWidth=1;shadow=0;labelBackgroundColor=none;edgeStyle=orthogonalEdgeStyle;exitX=1;exitY=0.5;exitDx=0;exitDy=0;" parent="WIyWlLk6GJQsqaUBKTNV-1" source="vIY9tpSzzPqMu0DWue8W-14" target="WIyWlLk6GJQsqaUBKTNV-6" edge="1">
          <mxGeometry relative="1" as="geometry">
            <mxPoint x="210" y="327" as="sourcePoint" />
          </mxGeometry>
        </mxCell>
        <mxCell id="WIyWlLk6GJQsqaUBKTNV-4" value="否" style="rounded=0;html=1;jettySize=auto;orthogonalLoop=1;fontSize=11;endArrow=block;endFill=0;endSize=8;strokeWidth=1;shadow=0;labelBackgroundColor=none;edgeStyle=orthogonalEdgeStyle;exitX=0.5;exitY=1;exitDx=0;exitDy=0;" parent="WIyWlLk6GJQsqaUBKTNV-1" source="WIyWlLk6GJQsqaUBKTNV-6" edge="1">
          <mxGeometry y="20" relative="1" as="geometry">
            <mxPoint as="offset" />
            <mxPoint x="270" y="477" as="targetPoint" />
          </mxGeometry>
        </mxCell>
        <mxCell id="WIyWlLk6GJQsqaUBKTNV-5" value="是，获取用户信息，&lt;br&gt;存放到store中" style="edgeStyle=orthogonalEdgeStyle;rounded=0;html=1;jettySize=auto;orthogonalLoop=1;fontSize=11;endArrow=block;endFill=0;endSize=8;strokeWidth=1;shadow=0;labelBackgroundColor=none;" parent="WIyWlLk6GJQsqaUBKTNV-1" source="WIyWlLk6GJQsqaUBKTNV-6" target="vIY9tpSzzPqMu0DWue8W-9" edge="1">
          <mxGeometry x="-0.0751" y="30" relative="1" as="geometry">
            <mxPoint as="offset" />
            <mxPoint x="590" y="327" as="targetPoint" />
            <Array as="points">
              <mxPoint x="530" y="327" />
              <mxPoint x="530" y="327" />
            </Array>
          </mxGeometry>
        </mxCell>
        <mxCell id="WIyWlLk6GJQsqaUBKTNV-6" value="用户是否登录" style="rhombus;whiteSpace=wrap;html=1;shadow=0;fontFamily=Helvetica;fontSize=12;align=center;strokeWidth=1;spacing=6;spacingTop=-4;" parent="WIyWlLk6GJQsqaUBKTNV-1" vertex="1">
          <mxGeometry x="220" y="287" width="100" height="80" as="geometry" />
        </mxCell>
        <mxCell id="WIyWlLk6GJQsqaUBKTNV-11" value="initPage" style="rounded=1;whiteSpace=wrap;html=1;fontSize=12;glass=0;strokeWidth=1;shadow=0;" parent="WIyWlLk6GJQsqaUBKTNV-1" vertex="1">
          <mxGeometry x="49" y="927" width="170" height="40" as="geometry" />
        </mxCell>
        <mxCell id="vIY9tpSzzPqMu0DWue8W-6" value="开始访问h5页面" style="rounded=1;whiteSpace=wrap;html=1;" parent="WIyWlLk6GJQsqaUBKTNV-1" vertex="1">
          <mxGeometry x="60" y="-20" width="140" height="50" as="geometry" />
        </mxCell>
        <mxCell id="vIY9tpSzzPqMu0DWue8W-9" value="loginInfo&#xa;&#xa;&#xa;" style="shape=cylinder3;boundedLbl=1;backgroundOutline=1;size=15;whiteSpace=wrap;fontSize=10;fillColor=#ffe6cc;strokeColor=#d79b00;" parent="WIyWlLk6GJQsqaUBKTNV-1" vertex="1">
          <mxGeometry x="600" width="130" height="877" as="geometry" />
        </mxCell>
        <mxCell id="vIY9tpSzzPqMu0DWue8W-14" value="layout组件中beforemount时调用getLoginInfo" style="rounded=1;whiteSpace=wrap;html=1;" parent="WIyWlLk6GJQsqaUBKTNV-1" vertex="1">
          <mxGeometry x="74" y="302" width="120" height="50" as="geometry" />
        </mxCell>
        <mxCell id="vIY9tpSzzPqMu0DWue8W-15" value="" style="rounded=0;html=1;jettySize=auto;orthogonalLoop=1;fontSize=11;endArrow=block;endFill=0;endSize=8;strokeWidth=1;shadow=0;labelBackgroundColor=none;edgeStyle=orthogonalEdgeStyle;exitX=0.5;exitY=1;exitDx=0;exitDy=0;entryX=0.5;entryY=0;entryDx=0;entryDy=0;" parent="WIyWlLk6GJQsqaUBKTNV-1" source="vIY9tpSzzPqMu0DWue8W-6" target="VcRhLuIsz3l9arXMUyPR-2" edge="1">
          <mxGeometry relative="1" as="geometry">
            <mxPoint x="143.71" y="157" as="sourcePoint" />
            <mxPoint x="144" y="90" as="targetPoint" />
            <Array as="points" />
          </mxGeometry>
        </mxCell>
        <mxCell id="vIY9tpSzzPqMu0DWue8W-20" value="watch 用户数据变化" style="endArrow=classic;html=1;rounded=0;fontSize=10;exitX=0.5;exitY=1;exitDx=0;exitDy=0;exitPerimeter=0;entryX=1;entryY=0.5;entryDx=0;entryDy=0;" parent="WIyWlLk6GJQsqaUBKTNV-1" source="vIY9tpSzzPqMu0DWue8W-9" target="WIyWlLk6GJQsqaUBKTNV-11" edge="1">
          <mxGeometry width="50" height="50" relative="1" as="geometry">
            <mxPoint x="490" y="737" as="sourcePoint" />
            <mxPoint x="555" y="787" as="targetPoint" />
            <Array as="points">
              <mxPoint x="665" y="947" />
            </Array>
          </mxGeometry>
        </mxCell>
        <mxCell id="vIY9tpSzzPqMu0DWue8W-21" value="呈现页面" style="rounded=1;whiteSpace=wrap;html=1;fontSize=12;glass=0;strokeWidth=1;shadow=0;" parent="WIyWlLk6GJQsqaUBKTNV-1" vertex="1">
          <mxGeometry x="50" y="1037" width="310" height="40" as="geometry" />
        </mxCell>
        <mxCell id="vIY9tpSzzPqMu0DWue8W-22" value="" style="endArrow=classic;html=1;rounded=0;fontSize=10;exitX=0.5;exitY=1;exitDx=0;exitDy=0;entryX=0.481;entryY=-0.022;entryDx=0;entryDy=0;entryPerimeter=0;" parent="WIyWlLk6GJQsqaUBKTNV-1" source="WIyWlLk6GJQsqaUBKTNV-11" edge="1">
          <mxGeometry width="50" height="50" relative="1" as="geometry">
            <mxPoint x="197" y="957" as="sourcePoint" />
            <mxPoint x="134.48999999999978" y="1026.12" as="targetPoint" />
          </mxGeometry>
        </mxCell>
        <mxCell id="vIY9tpSzzPqMu0DWue8W-25" value="是否用到用户信息" style="rhombus;shadow=0;fontFamily=Helvetica;fontSize=12;align=center;strokeWidth=1;spacing=6;spacingTop=-4;whiteSpace=wrap;" parent="WIyWlLk6GJQsqaUBKTNV-1" vertex="1">
          <mxGeometry x="220" y="482" width="100" height="80" as="geometry" />
        </mxCell>
        <mxCell id="vIY9tpSzzPqMu0DWue8W-27" value="否" style="rounded=0;html=1;jettySize=auto;orthogonalLoop=1;fontSize=11;endArrow=block;endFill=0;endSize=8;strokeWidth=1;shadow=0;labelBackgroundColor=none;edgeStyle=orthogonalEdgeStyle;exitX=0.5;exitY=1;exitDx=0;exitDy=0;entryX=0.711;entryY=-0.109;entryDx=0;entryDy=0;entryPerimeter=0;" parent="WIyWlLk6GJQsqaUBKTNV-1" source="vIY9tpSzzPqMu0DWue8W-25" target="vIY9tpSzzPqMu0DWue8W-21" edge="1">
          <mxGeometry y="20" relative="1" as="geometry">
            <mxPoint as="offset" />
            <mxPoint x="170" y="587" as="sourcePoint" />
            <mxPoint x="310" y="757" as="targetPoint" />
          </mxGeometry>
        </mxCell>
        <mxCell id="vIY9tpSzzPqMu0DWue8W-29" value="在mount事件中添加&lt;br&gt;visibilitychange事件" style="rounded=1;whiteSpace=wrap;html=1;" parent="WIyWlLk6GJQsqaUBKTNV-1" vertex="1">
          <mxGeometry x="384.21" y="497" width="120" height="50" as="geometry" />
        </mxCell>
        <mxCell id="vIY9tpSzzPqMu0DWue8W-30" value="获取用户信息，&lt;br&gt;存放到store中" style="edgeStyle=orthogonalEdgeStyle;rounded=0;html=1;jettySize=auto;orthogonalLoop=1;fontSize=11;endArrow=block;endFill=0;endSize=8;strokeWidth=1;shadow=0;labelBackgroundColor=none;spacing=7;" parent="WIyWlLk6GJQsqaUBKTNV-1" target="vIY9tpSzzPqMu0DWue8W-9" edge="1">
          <mxGeometry x="-0.0439" y="17" relative="1" as="geometry">
            <mxPoint as="offset" />
            <mxPoint x="504.21" y="804.01" as="sourcePoint" />
            <mxPoint x="580" y="797" as="targetPoint" />
            <Array as="points">
              <mxPoint x="580" y="804" />
              <mxPoint x="580" y="804" />
            </Array>
          </mxGeometry>
        </mxCell>
        <mxCell id="vIY9tpSzzPqMu0DWue8W-31" value="页面mounted" style="rounded=1;whiteSpace=wrap;html=1;fontSize=12;glass=0;strokeWidth=1;shadow=0;" parent="WIyWlLk6GJQsqaUBKTNV-1" vertex="1">
          <mxGeometry x="49" y="637" width="170" height="40" as="geometry" />
        </mxCell>
        <mxCell id="vIY9tpSzzPqMu0DWue8W-32" value="是否已有用户信息" style="rhombus;whiteSpace=wrap;html=1;shadow=0;fontFamily=Helvetica;fontSize=12;align=center;strokeWidth=1;spacing=6;spacingTop=-4;" parent="WIyWlLk6GJQsqaUBKTNV-1" vertex="1">
          <mxGeometry x="84" y="767" width="100" height="80" as="geometry" />
        </mxCell>
        <mxCell id="vIY9tpSzzPqMu0DWue8W-33" value="是" style="rounded=0;html=1;jettySize=auto;orthogonalLoop=1;fontSize=11;endArrow=block;endFill=0;endSize=8;strokeWidth=1;shadow=0;labelBackgroundColor=none;edgeStyle=orthogonalEdgeStyle;entryX=0.5;entryY=0;entryDx=0;entryDy=0;" parent="WIyWlLk6GJQsqaUBKTNV-1" target="WIyWlLk6GJQsqaUBKTNV-11" edge="1">
          <mxGeometry y="20" relative="1" as="geometry">
            <mxPoint as="offset" />
            <mxPoint x="133.57" y="848" as="sourcePoint" />
            <mxPoint x="133.57" y="898" as="targetPoint" />
          </mxGeometry>
        </mxCell>
        <mxCell id="vIY9tpSzzPqMu0DWue8W-35" value="" style="rounded=0;html=1;jettySize=auto;orthogonalLoop=1;fontSize=11;endArrow=block;endFill=0;endSize=8;strokeWidth=1;shadow=0;labelBackgroundColor=none;edgeStyle=orthogonalEdgeStyle;entryX=0.5;entryY=0;entryDx=0;entryDy=0;exitX=0.5;exitY=1;exitDx=0;exitDy=0;" parent="WIyWlLk6GJQsqaUBKTNV-1" source="vIY9tpSzzPqMu0DWue8W-31" edge="1">
          <mxGeometry y="20" relative="1" as="geometry">
            <mxPoint as="offset" />
            <mxPoint x="132.95999999999992" y="688" as="sourcePoint" />
            <mxPoint x="133.39" y="767" as="targetPoint" />
            <Array as="points">
              <mxPoint x="133" y="677" />
            </Array>
          </mxGeometry>
        </mxCell>
        <mxCell id="vIY9tpSzzPqMu0DWue8W-37" value="" style="rounded=0;html=1;jettySize=auto;orthogonalLoop=1;fontSize=11;endArrow=block;endFill=0;endSize=8;strokeWidth=1;shadow=0;labelBackgroundColor=none;edgeStyle=orthogonalEdgeStyle;entryX=0.5;entryY=0;entryDx=0;entryDy=0;" parent="WIyWlLk6GJQsqaUBKTNV-1" target="vIY9tpSzzPqMu0DWue8W-31" edge="1">
          <mxGeometry y="20" relative="1" as="geometry">
            <mxPoint as="offset" />
            <mxPoint x="133.57" y="352" as="sourcePoint" />
            <mxPoint x="133.57" y="402" as="targetPoint" />
          </mxGeometry>
        </mxCell>
        <mxCell id="vIY9tpSzzPqMu0DWue8W-38" value="" style="endArrow=classic;html=1;rounded=0;fontSize=10;exitX=1;exitY=0.5;exitDx=0;exitDy=0;entryX=0;entryY=0.5;entryDx=0;entryDy=0;" parent="WIyWlLk6GJQsqaUBKTNV-1" source="vIY9tpSzzPqMu0DWue8W-25" target="vIY9tpSzzPqMu0DWue8W-29" edge="1">
          <mxGeometry width="50" height="50" relative="1" as="geometry">
            <mxPoint x="230" y="637" as="sourcePoint" />
            <mxPoint x="280" y="587" as="targetPoint" />
          </mxGeometry>
        </mxCell>
        <mxCell id="vIY9tpSzzPqMu0DWue8W-39" value="是" style="edgeLabel;html=1;align=center;verticalAlign=middle;resizable=0;points=[];fontSize=10;" parent="vIY9tpSzzPqMu0DWue8W-38" vertex="1" connectable="0">
          <mxGeometry x="-0.2087" y="-1" relative="1" as="geometry">
            <mxPoint y="-16" as="offset" />
          </mxGeometry>
        </mxCell>
        <mxCell id="vIY9tpSzzPqMu0DWue8W-43" value="调起客户端登录功能，表现为弹出一个登录页面" style="rounded=1;whiteSpace=wrap;html=1;" parent="WIyWlLk6GJQsqaUBKTNV-1" vertex="1">
          <mxGeometry x="384.21" y="687" width="120" height="50" as="geometry" />
        </mxCell>
        <mxCell id="vIY9tpSzzPqMu0DWue8W-44" value="h5监听到visibilitychange,在调用getLoginInfo" style="rounded=1;whiteSpace=wrap;html=1;" parent="WIyWlLk6GJQsqaUBKTNV-1" vertex="1">
          <mxGeometry x="384.21" y="777" width="120" height="50" as="geometry" />
        </mxCell>
        <mxCell id="vIY9tpSzzPqMu0DWue8W-45" value="点击需要登录的地方" style="rounded=1;whiteSpace=wrap;html=1;" parent="WIyWlLk6GJQsqaUBKTNV-1" vertex="1">
          <mxGeometry x="384.21" y="597" width="120" height="50" as="geometry" />
        </mxCell>
        <mxCell id="vIY9tpSzzPqMu0DWue8W-47" value="" style="endArrow=classic;html=1;rounded=0;fontSize=10;exitX=0.5;exitY=1;exitDx=0;exitDy=0;entryX=0.5;entryY=0;entryDx=0;entryDy=0;" parent="WIyWlLk6GJQsqaUBKTNV-1" source="vIY9tpSzzPqMu0DWue8W-29" target="vIY9tpSzzPqMu0DWue8W-45" edge="1">
          <mxGeometry width="50" height="50" relative="1" as="geometry">
            <mxPoint x="350" y="547" as="sourcePoint" />
            <mxPoint x="400" y="497" as="targetPoint" />
          </mxGeometry>
        </mxCell>
        <mxCell id="vIY9tpSzzPqMu0DWue8W-48" value="" style="endArrow=classic;html=1;rounded=0;fontSize=10;exitX=0.5;exitY=1;exitDx=0;exitDy=0;" parent="WIyWlLk6GJQsqaUBKTNV-1" edge="1">
          <mxGeometry width="50" height="50" relative="1" as="geometry">
            <mxPoint x="443.98" y="647" as="sourcePoint" />
            <mxPoint x="444" y="687" as="targetPoint" />
          </mxGeometry>
        </mxCell>
        <mxCell id="vIY9tpSzzPqMu0DWue8W-49" value="" style="endArrow=classic;html=1;rounded=0;fontSize=10;exitX=0.5;exitY=1;exitDx=0;exitDy=0;" parent="WIyWlLk6GJQsqaUBKTNV-1" edge="1">
          <mxGeometry width="50" height="50" relative="1" as="geometry">
            <mxPoint x="443.98" y="737" as="sourcePoint" />
            <mxPoint x="444" y="777" as="targetPoint" />
          </mxGeometry>
        </mxCell>
        <mxCell id="VcRhLuIsz3l9arXMUyPR-0" value="" style="rounded=0;whiteSpace=wrap;html=1;fontSize=10;align=left;verticalAlign=top;spacingTop=10;spacingLeft=20;container=1;strokeColor=none;" vertex="1" parent="WIyWlLk6GJQsqaUBKTNV-1">
          <mxGeometry y="1090" width="790" height="10" as="geometry" />
        </mxCell>
        <mxCell id="VcRhLuIsz3l9arXMUyPR-1" value="解密数据，获得用户信息" style="rounded=1;whiteSpace=wrap;html=1;fillColor=#ffe6cc;strokeColor=#d79b00;" vertex="1" parent="WIyWlLk6GJQsqaUBKTNV-1">
          <mxGeometry x="290" y="89" width="140" height="50" as="geometry" />
        </mxCell>
        <mxCell id="VcRhLuIsz3l9arXMUyPR-2" value="判断url中是否有userInfo参数" style="rhombus;whiteSpace=wrap;html=1;shadow=0;fontFamily=Helvetica;fontSize=12;align=center;strokeWidth=1;spacing=6;spacingTop=-4;fillColor=#ffe6cc;strokeColor=#d79b00;" vertex="1" parent="WIyWlLk6GJQsqaUBKTNV-1">
          <mxGeometry x="80" y="74" width="100" height="80" as="geometry" />
        </mxCell>
        <mxCell id="VcRhLuIsz3l9arXMUyPR-4" value="" style="endArrow=classic;html=1;rounded=0;exitX=1;exitY=0.5;exitDx=0;exitDy=0;entryX=0;entryY=0.5;entryDx=0;entryDy=0;" edge="1" parent="WIyWlLk6GJQsqaUBKTNV-1" source="VcRhLuIsz3l9arXMUyPR-2" target="VcRhLuIsz3l9arXMUyPR-1">
          <mxGeometry width="50" height="50" relative="1" as="geometry">
            <mxPoint x="190" y="189" as="sourcePoint" />
            <mxPoint x="240" y="139" as="targetPoint" />
          </mxGeometry>
        </mxCell>
        <mxCell id="VcRhLuIsz3l9arXMUyPR-11" value="是" style="edgeLabel;html=1;align=center;verticalAlign=middle;resizable=0;points=[];" vertex="1" connectable="0" parent="VcRhLuIsz3l9arXMUyPR-4">
          <mxGeometry x="-0.2232" y="-1" relative="1" as="geometry">
            <mxPoint y="-15" as="offset" />
          </mxGeometry>
        </mxCell>
        <mxCell id="VcRhLuIsz3l9arXMUyPR-7" value="" style="endArrow=classic;html=1;rounded=0;exitX=1;exitY=0.5;exitDx=0;exitDy=0;entryX=-0.023;entryY=0.127;entryDx=0;entryDy=0;entryPerimeter=0;" edge="1" parent="WIyWlLk6GJQsqaUBKTNV-1" source="VcRhLuIsz3l9arXMUyPR-1" target="vIY9tpSzzPqMu0DWue8W-9">
          <mxGeometry width="50" height="50" relative="1" as="geometry">
            <mxPoint x="390" y="340" as="sourcePoint" />
            <mxPoint x="440" y="290" as="targetPoint" />
          </mxGeometry>
        </mxCell>
        <mxCell id="VcRhLuIsz3l9arXMUyPR-8" value="查看sessionStorage中是否有数据" style="rhombus;whiteSpace=wrap;html=1;shadow=0;fontFamily=Helvetica;fontSize=12;align=center;strokeWidth=1;spacing=6;spacingTop=-4;fillColor=#ffe6cc;strokeColor=#d79b00;" vertex="1" parent="WIyWlLk6GJQsqaUBKTNV-1">
          <mxGeometry x="80" y="180" width="100" height="80" as="geometry" />
        </mxCell>
        <mxCell id="VcRhLuIsz3l9arXMUyPR-9" value="" style="endArrow=classic;html=1;rounded=0;exitX=0.5;exitY=1;exitDx=0;exitDy=0;" edge="1" parent="WIyWlLk6GJQsqaUBKTNV-1" source="VcRhLuIsz3l9arXMUyPR-2" target="VcRhLuIsz3l9arXMUyPR-8">
          <mxGeometry width="50" height="50" relative="1" as="geometry">
            <mxPoint x="150" y="200" as="sourcePoint" />
            <mxPoint x="200" y="150" as="targetPoint" />
          </mxGeometry>
        </mxCell>
        <mxCell id="VcRhLuIsz3l9arXMUyPR-12" value="否" style="edgeLabel;html=1;align=center;verticalAlign=middle;resizable=0;points=[];" vertex="1" connectable="0" parent="VcRhLuIsz3l9arXMUyPR-9">
          <mxGeometry x="-0.1538" y="-1" relative="1" as="geometry">
            <mxPoint x="17" as="offset" />
          </mxGeometry>
        </mxCell>
        <mxCell id="VcRhLuIsz3l9arXMUyPR-13" value="" style="endArrow=classic;html=1;rounded=0;exitX=1;exitY=0.5;exitDx=0;exitDy=0;entryX=-0.03;entryY=0.251;entryDx=0;entryDy=0;entryPerimeter=0;" edge="1" parent="WIyWlLk6GJQsqaUBKTNV-1" source="VcRhLuIsz3l9arXMUyPR-8" target="vIY9tpSzzPqMu0DWue8W-9">
          <mxGeometry width="50" height="50" relative="1" as="geometry">
            <mxPoint x="230" y="350" as="sourcePoint" />
            <mxPoint x="280" y="300" as="targetPoint" />
          </mxGeometry>
        </mxCell>
        <mxCell id="VcRhLuIsz3l9arXMUyPR-14" value="拿到用户信息，存放" style="edgeLabel;html=1;align=center;verticalAlign=middle;resizable=0;points=[];" vertex="1" connectable="0" parent="VcRhLuIsz3l9arXMUyPR-13">
          <mxGeometry x="-0.2627" y="-1" relative="1" as="geometry">
            <mxPoint y="-21" as="offset" />
          </mxGeometry>
        </mxCell>
        <mxCell id="VcRhLuIsz3l9arXMUyPR-15" value="否" style="endArrow=classic;html=1;rounded=0;exitX=0.5;exitY=1;exitDx=0;exitDy=0;" edge="1" parent="WIyWlLk6GJQsqaUBKTNV-1" source="VcRhLuIsz3l9arXMUyPR-8">
          <mxGeometry y="20" width="50" height="50" relative="1" as="geometry">
            <mxPoint x="230" y="230" as="sourcePoint" />
            <mxPoint x="130" y="300" as="targetPoint" />
            <mxPoint as="offset" />
          </mxGeometry>
        </mxCell>
        <mxCell id="VcRhLuIsz3l9arXMUyPR-19" value="&lt;span style=&quot;color: rgb(0, 0, 0); font-size: 10px;&quot;&gt;类型1：包括useid，detailedCreatorType，token，uuid，ppid&lt;/span&gt;" style="whiteSpace=wrap;html=1;strokeColor=#82b366;fillColor=#d5e8d4;strokeWidth=0;" vertex="1" parent="WIyWlLk6GJQsqaUBKTNV-1">
          <mxGeometry x="605" y="460" width="120" height="60" as="geometry" />
        </mxCell>
        <mxCell id="VcRhLuIsz3l9arXMUyPR-20" value="&lt;span style=&quot;color: rgb(0, 0, 0); font-size: 10px;&quot;&gt;类型2：包括类型1和birthday,icon,nickname等&lt;/span&gt;" style="whiteSpace=wrap;html=1;strokeColor=#82b366;fillColor=#d5e8d4;strokeWidth=0;" vertex="1" parent="WIyWlLk6GJQsqaUBKTNV-1">
          <mxGeometry x="605" y="530" width="120" height="60" as="geometry" />
        </mxCell>
        <mxCell id="VcRhLuIsz3l9arXMUyPR-21" value="&lt;span style=&quot;font-size: 10px;&quot;&gt;类型3：包括类型2和&lt;/span&gt;&lt;span style=&quot;background-color: initial;&quot;&gt;shareUrl&lt;/span&gt;&lt;div data-okr=&quot;%7B%22okrDelta%22%3A%5B%7B%22lineType%22%3A%22text%22%2C%22lineOptions%22%3A%7B%7D%2C%22lineContent%22%3A%5B%7B%22opType%22%3A%22text%22%2C%22options%22%3A%7B%22text%22%3A%22shareUrl%22%7D%7D%5D%7D%5D%2C%22businessKey%22%3A%22lark-doc%22%7D&quot; class=&quot;okr-block-clipboard&quot;&gt;&lt;/div&gt;&lt;span style=&quot;font-size: 10px;&quot;&gt;等&lt;/span&gt;" style="whiteSpace=wrap;html=1;strokeColor=#82b366;fillColor=#d5e8d4;strokeWidth=0;" vertex="1" parent="WIyWlLk6GJQsqaUBKTNV-1">
          <mxGeometry x="605" y="597" width="120" height="60" as="geometry" />
        </mxCell>
      </root>
    </mxGraphModel>
  </diagram>
</mxfile>
